<svg width="7" height="15" viewBox="0 0 7 15" fill="none" xmlns="http://www.w3.org/2000/svg">
<path d="M4.49641 3.55556C5.47825 3.55556 6.27418 2.75962 6.27418 1.77778C6.27418 0.795938 5.47825 0 4.49641 0C3.51457 0 2.71863 0.795938 2.71863 1.77778C2.71863 2.75962 3.51457 3.55556 4.49641 3.55556Z" fill="#282828"/>
<path d="M6.31427 10.7689C6.26516 10.7359 6.20994 10.713 6.15186 10.7015C6.09378 10.6901 6.03401 10.6904 5.97605 10.7025C5.91809 10.7145 5.86311 10.7379 5.81434 10.7715C5.76557 10.805 5.724 10.848 5.69205 10.8978C5.2624 11.5341 4.73606 12.0994 4.13205 12.5733C3.98538 12.6844 3.43872 13.1067 3.2076 13.0178C3.0476 12.9689 3.14094 12.6533 3.17205 12.52L3.4076 11.8222C3.50538 11.5378 5.2076 6.48889 5.39427 5.91111C5.66983 5.06667 5.54983 4.23556 4.29205 4.43556C3.94983 4.47111 0.478715 4.92 0.416493 4.92445C0.358128 4.92824 0.301082 4.94349 0.248611 4.96933C0.19614 4.99517 0.149273 5.0311 0.110685 5.07505C0.0720972 5.119 0.0425443 5.17012 0.0237138 5.2255C0.00488334 5.28087 -0.0028558 5.33941 0.000937938 5.39778C0.00473168 5.45614 0.0199842 5.51319 0.0458246 5.56566C0.071665 5.61813 0.107587 5.665 0.15154 5.70359C0.195493 5.74218 0.246616 5.77173 0.30199 5.79056C0.357365 5.80939 0.415906 5.81713 0.474271 5.81333C0.474271 5.81333 1.8076 5.64 1.95427 5.62667C2.0294 5.61933 2.10504 5.63389 2.17207 5.66859C2.2391 5.70329 2.29467 5.75665 2.33205 5.82222C2.41258 6.07117 2.40155 6.34069 2.30094 6.58222C2.18538 7.02667 0.358716 12.1733 0.300938 12.4711C0.238968 12.7203 0.256173 12.9826 0.350163 13.2216C0.444152 13.4605 0.610255 13.6643 0.825382 13.8044C1.22916 14.0736 1.70994 14.2031 2.19427 14.1733C2.66519 14.1676 3.13092 14.0741 3.5676 13.8978C4.67427 13.4533 5.82983 12.2711 6.43872 11.3422C6.49115 11.2478 6.50743 11.1376 6.48453 11.0321C6.46163 10.9266 6.40111 10.833 6.31427 10.7689Z" fill="#282828"/>
</svg>
