<svg width="28" height="22" viewBox="0 0 28 22" fill="none" xmlns="http://www.w3.org/2000/svg">
<path d="M13.8233 0.00861884C10.5621 -0.0398578 6.03191 0.0310145 5.09922 2.56767L2.80766 8.0118C2.70602 7.89408 2.57273 7.80887 2.42406 7.76658L1.50144 7.50378C1.39999 7.47466 1.29386 7.46611 1.18914 7.47862C1.08441 7.49113 0.983161 7.52446 0.891194 7.57669C0.799226 7.62893 0.718353 7.69903 0.653216 7.78299C0.58808 7.86695 0.539963 7.96311 0.511627 8.06594L0.0302994 9.79636C0.00157546 9.89906 -0.00683869 10.0065 0.0055397 10.1125C0.0179181 10.2185 0.0508454 10.3209 0.102433 10.414C0.15402 10.5071 0.223252 10.589 0.306156 10.6549C0.389061 10.7208 0.484007 10.7695 0.585548 10.7982L1.50844 11.0613C1.53924 11.0698 1.57004 11.0726 1.60084 11.0777C1.42444 11.5228 1.31468 12.0121 1.31468 12.3033V18.6307C1.31468 18.955 1.44908 19.1053 1.66244 19.1756V20.8612C1.66211 21.0109 1.69098 21.1591 1.74739 21.2974C1.80379 21.4357 1.88663 21.5614 1.99114 21.6672C2.09565 21.773 2.21978 21.8569 2.35639 21.914C2.49301 21.9711 2.63942 22.0003 2.78722 22H5.80483C5.95263 22.0003 6.09904 21.9711 6.23565 21.914C6.37227 21.8569 6.49639 21.773 6.6009 21.6672C6.70542 21.5614 6.78825 21.4357 6.84466 21.2974C6.90107 21.1591 6.92994 21.0109 6.9296 20.8612V19.2374H21.0707V20.8612C21.0704 21.0109 21.0993 21.1591 21.1558 21.2974C21.2122 21.4357 21.2951 21.5613 21.3996 21.6671C21.5041 21.7729 21.6283 21.8568 21.7649 21.9139C21.9015 21.971 22.0479 22.0003 22.1957 22H25.2128C25.3606 22.0003 25.507 21.9711 25.6437 21.914C25.7803 21.8569 25.9045 21.773 26.009 21.6672C26.1136 21.5614 26.1965 21.4358 26.2529 21.2975C26.3094 21.1591 26.3384 21.0109 26.3381 20.8612V19.1759C26.5517 19.1056 26.6853 18.9553 26.6853 18.631V12.3035C26.6853 12.0124 26.5753 11.5231 26.3991 11.078C26.4299 11.0732 26.4607 11.0704 26.4915 11.0616L27.4147 10.7985C27.5162 10.7698 27.6111 10.721 27.694 10.6551C27.7769 10.5892 27.8461 10.5073 27.8977 10.4142C27.9492 10.3212 27.9821 10.2187 27.9945 10.1127C28.0068 10.0067 27.9984 9.89932 27.9697 9.79664L27.4889 8.06623C27.4605 7.96338 27.4124 7.86722 27.3472 7.78326C27.2821 7.6993 27.2012 7.62919 27.1092 7.57696C27.0172 7.52473 26.9159 7.4914 26.8112 7.47889C26.7064 7.46639 26.6003 7.47494 26.4988 7.50407L25.5762 7.76686C25.4275 7.80933 25.2942 7.89451 25.1923 8.01208L22.9008 2.56796C21.9011 -0.00725609 17.0842 0.0573791 13.823 0.00890245L13.8233 0.00861884ZM23.1634 8.35567C23.2177 8.51896 23.0553 8.62782 22.8854 8.63774C22.8854 8.63774 22.3298 8.68537 21.5637 8.74802C20.9808 7.36913 19.6261 6.39733 18.0567 6.39733C16.3344 6.39733 14.8722 7.56814 14.4032 9.16248C14.2733 9.16418 14.1224 9.16985 14.0017 9.16985C11.0345 9.16985 5.11462 8.63774 5.11462 8.63774C4.94493 8.62754 4.78225 8.51868 4.83657 8.35567C7.11637 1.31919 7.18441 1.84818 13.874 1.92217C20.5633 1.99588 20.6022 1.49325 23.1634 8.35567ZM18.0567 7.72717C18.4697 7.72573 18.8766 7.82839 19.2406 8.02591C19.6046 8.22343 19.9144 8.50959 20.1419 8.85858C18.8021 8.95922 17.2601 9.06212 15.8231 9.12194C16.0299 8.70168 16.3486 8.34835 16.7433 8.10188C17.138 7.85541 17.593 7.72562 18.0567 7.72717ZM2.63378 10.0107C2.65394 10.041 2.67354 10.0713 2.69594 10.1005H2.60914L2.63378 10.0107ZM4.11612 11.7779C4.70301 11.7683 7.85362 12.8419 7.85362 12.8419C8.24702 12.9541 8.59339 13.7071 8.59143 14.121C8.58555 15.5149 5.03285 15.031 3.59055 15.0367C3.49363 15.0368 3.39763 15.0177 3.30805 14.9802C3.21847 14.9427 3.13707 14.8878 3.06853 14.8184C2.99998 14.749 2.94564 14.6666 2.90861 14.5759C2.87158 14.4853 2.85259 14.3881 2.85274 14.2899V12.5252C2.85274 12.1113 3.52923 11.7882 4.11612 11.7779ZM23.8839 11.7779C24.4707 11.7879 25.1472 12.1113 25.1472 12.5252V14.2899C25.1474 14.3881 25.1285 14.4853 25.0914 14.576C25.0544 14.6667 25.0001 14.7492 24.9315 14.8186C24.863 14.888 24.7816 14.943 24.692 14.9805C24.6024 15.0179 24.5064 15.0371 24.4094 15.0369C22.9674 15.0313 19.4144 15.5149 19.4086 14.121C19.4066 13.7071 19.753 12.9541 20.1464 12.8419C20.1464 12.8419 23.297 11.7683 23.8839 11.7779Z" fill="#162248"/>
</svg>
