<svg width="15" height="18" viewBox="0 0 15 18" fill="none" xmlns="http://www.w3.org/2000/svg">
<path d="M7.10526 18V15.1315C3.15 14.9243 0 11.6096 0 7.56972C0 3.39442 3.36316 0 7.5 0C11.6368 0 15 3.39442 15 7.56972C15 11.5139 12.2842 15.4821 8.23421 17.4502L7.10526 18ZM7.5 1.59363C4.23158 1.59363 1.57895 4.27092 1.57895 7.56972C1.57895 10.8685 4.23158 13.5458 7.5 13.5458H8.68421V15.3785C11.5579 13.5458 13.4211 10.5339 13.4211 7.56972C13.4211 4.27092 10.7684 1.59363 7.5 1.59363ZM6.71053 10.757H8.28947V12.3506H6.71053V10.757ZM8.28947 9.56175H6.71053C6.71053 6.97211 9.07895 7.17132 9.07895 5.57769C9.07895 4.7012 8.36842 3.98406 7.5 3.98406C6.63158 3.98406 5.92105 4.7012 5.92105 5.57769H4.34211C4.34211 3.81673 5.75526 2.39044 7.5 2.39044C9.24474 2.39044 10.6579 3.81673 10.6579 5.57769C10.6579 7.56972 8.28947 7.76892 8.28947 9.56175Z" fill="#282828"/>
</svg>
