<svg width="14" height="17" viewBox="0 0 14 17" fill="none" xmlns="http://www.w3.org/2000/svg">
<path d="M8.74793 7.80766L5.65381 4.66171V7.60574C5.65381 7.65929 5.67508 7.71065 5.71295 7.74852C5.75082 7.78639 5.80218 7.80766 5.85573 7.80766H8.74793Z" fill="black"/>
<path d="M4.57691 8.48074V4.30767H0.403845C0.296738 4.30767 0.194019 4.35022 0.118283 4.42596C0.0425478 4.50169 0 4.60441 0 4.71152V15.7499C0 15.857 0.0425478 15.9598 0.118283 16.0355C0.194019 16.1112 0.296738 16.1538 0.403845 16.1538H8.74997C8.85707 16.1538 8.95979 16.1112 9.03553 16.0355C9.11127 15.9598 9.15381 15.857 9.15381 15.7499V8.88458H4.98075C4.87364 8.88458 4.77093 8.84203 4.69519 8.7663C4.61945 8.69056 4.57691 8.58784 4.57691 8.48074ZM10.7019 3.49998H13.5941L10.5 0.354034V3.29806C10.5 3.35162 10.5212 3.40298 10.5591 3.44084C10.597 3.47871 10.6483 3.49998 10.7019 3.49998Z" fill="black"/>
<path d="M9.82684 4.57691C9.71973 4.57691 9.61701 4.53436 9.54127 4.45862C9.46554 4.38289 9.42299 4.28017 9.42299 4.17306V0H4.17301C4.0659 0 3.96318 0.0425478 3.88745 0.118283C3.81171 0.194019 3.76917 0.296738 3.76917 0.403845V3.23076H5.18666C5.36759 3.23148 5.54659 3.26795 5.71338 3.33806C5.88018 3.40817 6.03147 3.51055 6.15858 3.63931L9.83222 7.37488C10.0885 7.63492 10.2316 7.98573 10.2303 8.35084V12.923H13.5961C13.7032 12.923 13.8059 12.8805 13.8816 12.8047C13.9573 12.729 13.9999 12.6263 13.9999 12.5192V4.57691H9.82684Z" fill="black"/>
</svg>
