<svg width="16" height="12" viewBox="0 0 16 12" fill="none" xmlns="http://www.w3.org/2000/svg">
<path d="M4.8 6C6.3475 6 7.6 4.82578 7.6 3.375C7.6 1.92422 6.3475 0.75 4.8 0.75C3.2525 0.75 2 1.92422 2 3.375C2 4.82578 3.2525 6 4.8 6ZM6.72 6.75H6.5125C5.9925 6.98438 5.415 7.125 4.8 7.125C4.185 7.125 3.61 6.98438 3.0875 6.75H2.88C1.29 6.75 0 7.95938 0 9.45V10.125C0 10.7461 0.5375 11.25 1.2 11.25H8.4C9.0625 11.25 9.6 10.7461 9.6 10.125V9.45C9.6 7.95938 8.31 6.75 6.72 6.75ZM12 6C13.325 6 14.4 4.99219 14.4 3.75C14.4 2.50781 13.325 1.5 12 1.5C10.675 1.5 9.6 2.50781 9.6 3.75C9.6 4.99219 10.675 6 12 6ZM13.2 6.75H13.105C12.7575 6.8625 12.39 6.9375 12 6.9375C11.61 6.9375 11.2425 6.8625 10.895 6.75H10.8C10.29 6.75 9.82 6.88828 9.4075 7.11094C10.0175 7.72734 10.4 8.54531 10.4 9.45V10.35C10.4 10.4016 10.3875 10.4508 10.385 10.5H14.8C15.4625 10.5 16 9.99609 16 9.375C16 7.92422 14.7475 6.75 13.2 6.75V6.75Z" fill="#282828"/>
</svg>
