<svg width="17" height="18" viewBox="0 0 17 18" fill="none" xmlns="http://www.w3.org/2000/svg">
<path d="M3.12848 11.6767C3.90887 11.6744 4.65974 11.3761 5.23145 10.8414L10.8168 14.0544C10.6296 14.7906 10.7121 15.57 11.0492 16.2499C11.3862 16.9299 11.9552 17.4649 12.6521 17.757C13.3489 18.0492 14.1269 18.0789 14.8437 17.8407C15.5605 17.6025 16.1681 17.1124 16.5553 16.4601C16.9425 15.8077 17.0834 15.0368 16.9522 14.2885C16.8209 13.5401 16.4263 12.8644 15.8407 12.385C15.255 11.9056 14.5174 11.6546 13.7629 11.6779C13.0084 11.7013 12.2875 11.9974 11.7322 12.5121L6.14688 9.29913C6.20576 9.07457 6.23788 8.84193 6.24324 8.60929L11.7304 5.45201C12.2588 5.93595 12.9364 6.22224 13.6495 6.26286C14.3627 6.30347 15.0681 6.09593 15.6473 5.67505C16.2264 5.25418 16.6442 4.64558 16.8306 3.95135C17.0169 3.25713 16.9604 2.51951 16.6705 1.86226C16.3807 1.20501 15.8751 0.668098 15.2387 0.341612C14.6022 0.0151252 13.8736 -0.0810758 13.175 0.0691474C12.4765 0.219371 11.8505 0.606878 11.4021 1.16666C10.9537 1.72644 10.7102 2.42444 10.7124 3.14356C10.716 3.40225 10.7508 3.66004 10.8168 3.90975L5.74538 6.8263C5.45128 6.36826 5.04388 5.99512 4.56319 5.74355C4.08251 5.49198 3.54509 5.37063 3.00373 5.39142C2.46237 5.41222 1.93569 5.57444 1.47545 5.86215C1.0152 6.14986 0.637224 6.55317 0.37865 7.03244C0.120075 7.51171 -0.0101999 8.05046 0.000623392 8.59575C0.0114467 9.14105 0.162996 9.67412 0.440382 10.1426C0.717768 10.6111 1.11145 10.9989 1.58274 11.2679C2.05403 11.5368 2.58673 11.6777 3.12848 11.6767V11.6767Z" fill="white"/>
</svg>
